<svg width="217" height="162" viewBox="0 0 217 162" fill="none" xmlns="http://www.w3.org/2000/svg">
<rect x="41" y="64.721" width="131" height="85" fill="#ECF1F1"/>
<path d="M175 57.227L175 150.221L111.5 158.721L42.5 150.221L42.5 60.721" stroke="black" stroke-width="5" stroke-linecap="round"/>
<path d="M111 13.721L173.354 65.471H48.6462L111 13.721Z" fill="#ECF1F1"/>
<path d="M78.0909 140.721H66.2727L100.455 47.6301H112.091L146.273 140.721H134.455L106.636 62.3573H105.909L78.0909 140.721ZM82.4545 104.357H130.091V114.357H82.4545V104.357Z" fill="#D81F44"/>
<path d="M26 76.221L42.5 62.721L108.5 7.72095L195.5 76.221" stroke="#556080" stroke-width="12" stroke-linecap="round"/>
<path d="M110.358 160.126L80.8488 147.739L140.358 148.982L110.358 160.126Z" fill="#ECF1F1"/>
<ellipse cx="173.5" cy="133.221" rx="20.5" ry="14.5" fill="#B92543"/>
<ellipse cx="191" cy="129.221" rx="22" ry="14.5" fill="#B92543"/>
<ellipse cx="195.5" cy="135.721" rx="21.5" ry="15" fill="#B92543"/>
<ellipse cx="20.5" cy="133.221" rx="20.5" ry="14.5" fill="#B92543"/>
<ellipse cx="38" cy="129.221" rx="22" ry="14.5" fill="#B92548"/>
<ellipse cx="41.5" cy="135.721" rx="21.5" ry="15" fill="#B92543"/>
</svg>
