<svg width="431" height="480" viewBox="0 0 431 480" fill="none" xmlns="http://www.w3.org/2000/svg">
<rect width="431" height="480" fill="#1E1E1E"/>
<ellipse cx="225.602" cy="180.5" rx="192" ry="178" fill="#A6E5EF" stroke="white" stroke-width="5"/>
<path d="M225.602 51.5C304.774 51.5 368.602 109.441 368.602 180.5C368.602 251.559 304.774 309.5 225.602 309.5C146.429 309.5 82.6018 251.559 82.6018 180.5C82.6018 109.441 146.429 51.5 225.602 51.5Z" fill="#CFCEFF" stroke="black" stroke-width="4"/>
<path d="M15.6683 454.164C12.3221 460.202 14.5046 467.81 20.543 471.156C26.5814 474.502 34.1891 472.32 37.5353 466.281L26.6018 460.223L15.6683 454.164ZM26.6018 460.223L37.5353 466.281L144.744 272.814L133.81 266.756L122.877 260.697L15.6683 454.164L26.6018 460.223Z" fill="#2A1497"/>
<path d="M126.793 307.474L236.849 223.372L108.354 157.628L104.537 296.086L126.793 307.474ZM119.602 294.086L130.73 299.78L132.487 296.346L121.359 290.652L110.231 284.958L108.474 288.393L119.602 294.086Z" fill="white"/>
<path d="M400.334 470.875C402.673 477.371 409.834 480.741 416.329 478.402C422.825 476.064 426.195 468.903 423.856 462.407L412.095 466.641L400.334 470.875ZM412.095 466.641L423.856 462.407L341.363 233.266L329.602 237.5L317.841 241.734L400.334 470.875L412.095 466.641Z" fill="#1F2981"/>
<path d="M340.242 250.702C373.503 234.91 387.664 195.145 371.872 161.885C356.08 128.624 316.315 114.463 283.055 130.255C249.795 146.047 235.634 185.812 251.425 219.072C267.217 252.333 306.982 266.494 340.242 250.702ZM340.147 250.5L351.439 245.139L322.941 185.117L311.649 190.478L300.357 195.84L328.855 255.861L340.147 250.5Z" fill="white"/>
<path d="M392.214 38.8242L392.759 40.5859H422.81L399.885 58.0918L398.498 59.1504L399.014 60.8174L407.705 88.9316L385.119 71.6846L383.602 70.5254L382.084 71.6846L359.497 88.9316L368.19 60.8174L368.705 59.1504L367.319 58.0918L344.394 40.5859H374.445L374.989 38.8242L383.602 10.9648L392.214 38.8242Z" fill="#FFED61" stroke="black" stroke-width="5"/>
<path d="M55.2141 244.824L55.759 246.586H85.8098L62.885 264.092L61.4983 265.15L62.0139 266.817L70.7053 294.932L48.1194 277.685L46.6018 276.525L45.0842 277.685L22.4973 294.932L31.1897 266.817L31.7053 265.15L30.3186 264.092L7.39377 246.586H37.4445L37.9895 244.824L46.6018 216.965L55.2141 244.824Z" fill="#FFED61" stroke="black" stroke-width="5"/>
</svg>
