<svg width="217" height="162" viewBox="0 0 217 162" fill="none" xmlns="http://www.w3.org/2000/svg">
<rect x="41" y="64.721" width="131" height="85" fill="#ECF1F1"/>
<path d="M175 57.227L175 150.221L111.5 158.721L42.5 150.221L42.5 60.721" stroke="black" stroke-width="5" stroke-linecap="round"/>
<path d="M111 13.721L173.354 65.471H48.6462L111 13.721Z" fill="#ECF1F1"/>
<path d="M87.7727 63.9028V133.721H79.3182V72.7664H78.9091L61.8636 84.0846V75.4937L79.3182 63.9028H87.7727ZM130.625 134.676C125.489 134.676 121.114 133.278 117.5 130.482C113.886 127.664 111.125 123.585 109.216 118.244C107.307 112.88 106.352 106.403 106.352 98.8119C106.352 91.2664 107.307 84.8232 109.216 79.4823C111.148 74.1187 113.92 70.0278 117.534 67.2096C121.17 64.3687 125.534 62.9482 130.625 62.9482C135.716 62.9482 140.068 64.3687 143.682 67.2096C147.318 70.0278 150.091 74.1187 152 79.4823C153.932 84.8232 154.898 91.2664 154.898 98.8119C154.898 106.403 153.943 112.88 152.034 118.244C150.125 123.585 147.364 127.664 143.75 130.482C140.136 133.278 135.761 134.676 130.625 134.676ZM130.625 127.176C135.716 127.176 139.67 124.721 142.489 119.812C145.307 114.903 146.716 107.903 146.716 98.8119C146.716 92.7664 146.068 87.6187 144.773 83.3687C143.5 79.1187 141.659 75.8801 139.25 73.6528C136.864 71.4255 133.989 70.3119 130.625 70.3119C125.58 70.3119 121.636 72.8005 118.795 77.7778C115.955 82.7323 114.534 89.7437 114.534 98.8119C114.534 104.857 115.17 109.994 116.443 114.221C117.716 118.448 119.545 121.664 121.932 123.869C124.341 126.073 127.239 127.176 130.625 127.176Z" fill="#25B99A"/>
<path d="M26 76.221L42.5 62.721L108.5 7.72095L195.5 76.221" stroke="#556080" stroke-width="12" stroke-linecap="round"/>
<path d="M110.358 160.126L80.8488 147.739L140.358 148.982L110.358 160.126Z" fill="#ECF1F1"/>
<ellipse cx="173.5" cy="133.221" rx="20.5" ry="14.5" fill="#25B99A"/>
<ellipse cx="191" cy="129.221" rx="22" ry="14.5" fill="#25B99A"/>
<ellipse cx="195.5" cy="135.721" rx="21.5" ry="15" fill="#25B99A"/>
<ellipse cx="20.5" cy="133.221" rx="20.5" ry="14.5" fill="#25B99A"/>
<ellipse cx="38" cy="129.221" rx="22" ry="14.5" fill="#25B99A"/>
<ellipse cx="42.5" cy="135.721" rx="21.5" ry="15" fill="#25B99A"/>
</svg>
