<svg width="217" height="162" viewBox="0 0 217 162" fill="none" xmlns="http://www.w3.org/2000/svg">
<rect x="41" y="64.721" width="131" height="85" fill="#ECF1F1"/>
<path d="M175 57.227L175 150.221L111.5 158.721L42.5 150.221L42.5 60.721" stroke="black" stroke-width="5" stroke-linecap="round"/>
<path d="M111 13.721L173.354 65.471H48.6462L111 13.721Z" fill="#ECF1F1"/>
<path d="M87.7727 66.9028V136.721H79.3182V75.7664H78.9091L61.8636 87.0846V78.4937L79.3182 66.9028H87.7727ZM107.852 136.721V130.585L130.898 105.357C133.602 102.403 135.83 99.8346 137.58 97.6528C139.33 95.4482 140.625 93.3801 141.466 91.4482C142.33 89.4937 142.761 87.4482 142.761 85.3119C142.761 82.8573 142.17 80.7323 140.989 78.9369C139.83 77.1414 138.239 75.7551 136.216 74.7778C134.193 73.8005 131.92 73.3119 129.398 73.3119C126.716 73.3119 124.375 73.8687 122.375 74.9823C120.398 76.0732 118.864 77.6073 117.773 79.5846C116.705 81.5619 116.17 83.8801 116.17 86.5392H108.125C108.125 82.4482 109.068 78.8573 110.955 75.7664C112.841 72.6755 115.409 70.2664 118.659 68.5392C121.932 66.8119 125.602 65.9482 129.67 65.9482C133.761 65.9482 137.386 66.8119 140.545 68.5392C143.705 70.2664 146.182 72.596 147.977 75.5278C149.773 78.4596 150.67 81.721 150.67 85.3119C150.67 87.8801 150.205 90.3914 149.273 92.846C148.364 95.2778 146.773 97.9937 144.5 100.994C142.25 103.971 139.125 107.607 135.125 111.903L119.443 128.676V129.221H151.898V136.721H107.852Z" fill="#25B99A"/>
<path d="M26 76.221L42.5 62.721L108.5 7.72095L195.5 76.221" stroke="#556080" stroke-width="12" stroke-linecap="round"/>
<path d="M110.358 160.126L80.8488 147.739L140.358 148.982L110.358 160.126Z" fill="#ECF1F1"/>
<ellipse cx="173.5" cy="133.221" rx="20.5" ry="14.5" fill="#25B99A"/>
<ellipse cx="191" cy="129.221" rx="22" ry="14.5" fill="#25B99A"/>
<ellipse cx="195.5" cy="135.721" rx="21.5" ry="15" fill="#25B99A"/>
<ellipse cx="20.5" cy="133.221" rx="20.5" ry="14.5" fill="#25B99A"/>
<ellipse cx="38" cy="129.221" rx="22" ry="14.5" fill="#25B99A"/>
<ellipse cx="42.5" cy="135.721" rx="21.5" ry="15" fill="#25B99A"/>
</svg>
