<svg width="217" height="162" viewBox="0 0 217 162" fill="none" xmlns="http://www.w3.org/2000/svg">
<rect x="41" y="64.721" width="131" height="85" fill="#ECF1F1"/>
<path d="M175 57.227L175 150.221L111.5 158.721L42.5 150.221L42.5 60.721" stroke="black" stroke-width="5" stroke-linecap="round"/>
<path d="M111 13.721L173.354 65.471H48.6462L111 13.721Z" fill="#ECF1F1"/>
<path d="M87.7727 66.9028V136.721H79.3182V75.7664H78.9091L61.8636 87.0846V78.4937L79.3182 66.9028H87.7727ZM131.443 137.676C126.943 137.676 122.932 136.903 119.409 135.357C115.909 133.812 113.125 131.664 111.057 128.914C109.011 126.141 107.898 122.926 107.716 119.266H116.307C116.489 121.516 117.261 123.46 118.625 125.096C119.989 126.71 121.773 127.96 123.977 128.846C126.182 129.732 128.625 130.176 131.307 130.176C134.307 130.176 136.966 129.653 139.284 128.607C141.602 127.562 143.42 126.107 144.739 124.244C146.057 122.38 146.716 120.221 146.716 117.766C146.716 115.198 146.08 112.937 144.807 110.982C143.534 109.005 141.67 107.46 139.216 106.346C136.761 105.232 133.761 104.676 130.216 104.676H124.625V97.1755H130.216C132.989 97.1755 135.42 96.6755 137.511 95.6755C139.625 94.6755 141.273 93.2664 142.455 91.4482C143.659 89.6301 144.261 87.4937 144.261 85.0392C144.261 82.6755 143.739 80.6187 142.693 78.8687C141.648 77.1187 140.17 75.7551 138.261 74.7778C136.375 73.8005 134.148 73.3119 131.58 73.3119C129.17 73.3119 126.898 73.7551 124.761 74.6414C122.648 75.5051 120.92 76.7664 119.58 78.4255C118.239 80.0619 117.511 82.0392 117.398 84.3573H109.216C109.352 80.6982 110.455 77.4937 112.523 74.7437C114.591 71.971 117.295 69.8119 120.636 68.2664C124 66.721 127.693 65.9482 131.716 65.9482C136.034 65.9482 139.739 66.8232 142.83 68.5732C145.92 70.3005 148.295 72.5846 149.955 75.4255C151.614 78.2664 152.443 81.3346 152.443 84.6301C152.443 88.5619 151.409 91.9142 149.341 94.6869C147.295 97.4596 144.511 99.3801 140.989 100.448V100.994C145.398 101.721 148.841 103.596 151.318 106.619C153.795 109.619 155.034 113.335 155.034 117.766C155.034 121.562 154 124.971 151.932 127.994C149.886 130.994 147.091 133.357 143.545 135.085C140 136.812 135.966 137.676 131.443 137.676Z" fill="#25B99A"/>
<path d="M26 76.221L42.5 62.721L108.5 7.72095L195.5 76.221" stroke="#556080" stroke-width="12" stroke-linecap="round"/>
<path d="M110.358 160.126L80.8488 147.739L140.358 148.982L110.358 160.126Z" fill="#ECF1F1"/>
<ellipse cx="173.5" cy="133.221" rx="20.5" ry="14.5" fill="#25B99A"/>
<ellipse cx="191" cy="129.221" rx="22" ry="14.5" fill="#25B99A"/>
<ellipse cx="195.5" cy="135.721" rx="21.5" ry="15" fill="#25B99A"/>
<ellipse cx="20.5" cy="133.221" rx="20.5" ry="14.5" fill="#25B99A"/>
<ellipse cx="38" cy="129.221" rx="22" ry="14.5" fill="#25B99A"/>
<ellipse cx="42.5" cy="135.721" rx="21.5" ry="15" fill="#25B99A"/>
</svg>
