<svg width="217" height="162" viewBox="0 0 217 162" fill="none" xmlns="http://www.w3.org/2000/svg">
<rect x="41" y="64.721" width="131" height="85" fill="#ECF1F1"/>
<path d="M175 57.227L175 150.221L111.5 158.721L42.5 150.221L42.5 60.721" stroke="black" stroke-width="5" stroke-linecap="round"/>
<path d="M111 13.721L173.354 65.471H48.6462L111 13.721Z" fill="#ECF1F1"/>
<path d="M87.7727 66.9028V136.721H79.3182V75.7664H78.9091L61.8636 87.0846V78.4937L79.3182 66.9028H87.7727ZM129.67 137.676C125.67 137.676 122.068 136.88 118.864 135.289C115.659 133.698 113.091 131.516 111.159 128.744C109.227 125.971 108.17 122.812 107.989 119.266H116.17C116.489 122.426 117.92 125.039 120.466 127.107C123.034 129.153 126.102 130.176 129.67 130.176C132.534 130.176 135.08 129.505 137.307 128.164C139.557 126.823 141.318 124.982 142.591 122.641C143.886 120.278 144.534 117.607 144.534 114.63C144.534 111.585 143.864 108.869 142.523 106.482C141.205 104.073 139.386 102.176 137.068 100.789C134.75 99.4028 132.102 98.6982 129.125 98.6755C126.989 98.6528 124.795 98.9823 122.545 99.6642C120.295 100.323 118.443 101.176 116.989 102.221L109.08 101.266L113.307 66.9028H149.58V74.4028H120.398L117.943 94.9937H118.352C119.784 93.8573 121.58 92.9142 123.739 92.1642C125.898 91.4142 128.148 91.0392 130.489 91.0392C134.761 91.0392 138.568 92.0619 141.909 94.1073C145.273 96.1301 147.909 98.9028 149.818 102.426C151.75 105.948 152.716 109.971 152.716 114.494C152.716 118.948 151.716 122.926 149.716 126.426C147.739 129.903 145.011 132.653 141.534 134.676C138.057 136.676 134.102 137.676 129.67 137.676Z" fill="#25B99A"/>
<path d="M26 76.221L42.5 62.721L108.5 7.72095L195.5 76.221" stroke="#556080" stroke-width="12" stroke-linecap="round"/>
<path d="M110.358 160.126L80.8488 147.739L140.358 148.982L110.358 160.126Z" fill="#ECF1F1"/>
<ellipse cx="173.5" cy="133.221" rx="20.5" ry="14.5" fill="#25B99A"/>
<ellipse cx="191" cy="129.221" rx="22" ry="14.5" fill="#25B99A"/>
<ellipse cx="195.5" cy="135.721" rx="21.5" ry="15" fill="#25B99A"/>
<ellipse cx="20.5" cy="133.221" rx="20.5" ry="14.5" fill="#25B99A"/>
<ellipse cx="38" cy="129.221" rx="22" ry="14.5" fill="#25B99A"/>
<ellipse cx="42.5" cy="135.721" rx="21.5" ry="15" fill="#25B99A"/>
</svg>
