<svg width="217" height="162" viewBox="0 0 217 162" fill="none" xmlns="http://www.w3.org/2000/svg">
<rect x="41" y="64.721" width="131" height="85" fill="#ECF1F1"/>
<path d="M175 57.227L175 150.221L111.5 158.721L42.5 150.221L42.5 60.721" stroke="black" stroke-width="5" stroke-linecap="round"/>
<path d="M111 13.721L173.354 65.471H48.6462L111 13.721Z" fill="#ECF1F1"/>
<path d="M87.7727 66.9028V136.721H79.3182V75.7664H78.9091L61.8636 87.0846V78.4937L79.3182 66.9028H87.7727ZM131.034 137.676C128.17 137.63 125.307 137.085 122.443 136.039C119.58 134.994 116.966 133.232 114.602 130.755C112.239 128.255 110.341 124.88 108.909 120.63C107.477 116.357 106.761 110.994 106.761 104.539C106.761 98.3573 107.341 92.8801 108.5 88.1073C109.659 83.3119 111.341 79.2778 113.545 76.0051C115.75 72.7096 118.409 70.2096 121.523 68.5051C124.659 66.8005 128.193 65.9482 132.125 65.9482C136.034 65.9482 139.511 66.7323 142.557 68.3005C145.625 69.846 148.125 72.0051 150.057 74.7778C151.989 77.5505 153.239 80.7437 153.807 84.3573H145.489C144.716 81.221 143.216 78.6187 140.989 76.5505C138.761 74.4823 135.807 73.4482 132.125 73.4482C126.716 73.4482 122.455 75.8005 119.341 80.5051C116.25 85.2096 114.693 91.8119 114.67 100.312H115.216C116.489 98.3801 118 96.7323 119.75 95.3687C121.523 93.9823 123.477 92.9142 125.614 92.1642C127.75 91.4142 130.011 91.0392 132.398 91.0392C136.398 91.0392 140.057 92.0392 143.375 94.0392C146.693 96.0164 149.352 98.7551 151.352 102.255C153.352 105.732 154.352 109.721 154.352 114.221C154.352 118.539 153.386 122.494 151.455 126.085C149.523 129.653 146.807 132.494 143.307 134.607C139.83 136.698 135.739 137.721 131.034 137.676ZM131.034 130.176C133.898 130.176 136.466 129.46 138.739 128.028C141.034 126.596 142.841 124.676 144.159 122.266C145.5 119.857 146.17 117.176 146.17 114.221C146.17 111.335 145.523 108.71 144.227 106.346C142.955 103.96 141.193 102.062 138.943 100.653C136.716 99.2437 134.17 98.5392 131.307 98.5392C129.148 98.5392 127.136 98.971 125.273 99.8346C123.409 100.676 121.773 101.835 120.364 103.312C118.977 104.789 117.886 106.482 117.091 108.391C116.295 110.278 115.898 112.266 115.898 114.357C115.898 117.13 116.545 119.721 117.841 122.13C119.159 124.539 120.955 126.482 123.227 127.96C125.523 129.437 128.125 130.176 131.034 130.176Z" fill="#25B99A"/>
<path d="M26 76.221L42.5 62.721L108.5 7.72095L195.5 76.221" stroke="#556080" stroke-width="12" stroke-linecap="round"/>
<path d="M110.358 160.126L80.8488 147.739L140.358 148.982L110.358 160.126Z" fill="#ECF1F1"/>
<ellipse cx="173.5" cy="133.221" rx="20.5" ry="14.5" fill="#25B99A"/>
<ellipse cx="191" cy="129.221" rx="22" ry="14.5" fill="#25B99A"/>
<ellipse cx="195.5" cy="135.721" rx="21.5" ry="15" fill="#25B99A"/>
<ellipse cx="20.5" cy="133.221" rx="20.5" ry="14.5" fill="#25B99A"/>
<ellipse cx="38" cy="129.221" rx="22" ry="14.5" fill="#25B99A"/>
<ellipse cx="42.5" cy="135.721" rx="21.5" ry="15" fill="#25B99A"/>
</svg>
