<svg width="217" height="162" viewBox="0 0 217 162" fill="none" xmlns="http://www.w3.org/2000/svg">
<rect x="41" y="64.721" width="131" height="85" fill="#ECF1F1"/>
<path d="M175 57.227L175 150.221L111.5 158.721L42.5 150.221L42.5 60.721" stroke="black" stroke-width="5" stroke-linecap="round"/>
<path d="M111 13.721L173.354 65.471H48.6462L111 13.721Z" fill="#ECF1F1"/>
<path d="M78.6364 138.721V130.539L109.364 96.9028C112.97 92.9634 115.939 89.5392 118.273 86.6301C120.606 83.6907 122.333 80.9331 123.455 78.3573C124.606 75.7513 125.182 73.024 125.182 70.1755C125.182 66.9028 124.394 64.0695 122.818 61.6755C121.273 59.2816 119.152 57.4331 116.455 56.1301C113.758 54.827 110.727 54.1755 107.364 54.1755C103.788 54.1755 100.667 54.9179 98 56.4028C95.3636 57.8573 93.3182 59.9028 91.8636 62.5392C90.4394 65.1755 89.7273 68.2664 89.7273 71.8119H79C79 66.3573 80.2576 61.5695 82.7727 57.4482C85.2879 53.327 88.7121 50.1149 93.0455 47.8119C97.4091 45.5089 102.303 44.3573 107.727 44.3573C113.182 44.3573 118.015 45.5089 122.227 47.8119C126.439 50.1149 129.742 53.221 132.136 57.1301C134.53 61.0392 135.727 65.3876 135.727 70.1755C135.727 73.5998 135.106 76.9482 133.864 80.221C132.652 83.4634 130.53 87.0846 127.5 91.0846C124.5 95.0543 120.333 99.9028 115 105.63L94.0909 127.994V128.721H137.364V138.721H78.6364Z" fill="#25B99A"/>
<path d="M26 76.221L42.5 62.721L108.5 7.72095L195.5 76.221" stroke="#556080" stroke-width="12" stroke-linecap="round"/>
<path d="M110.358 160.126L80.8488 147.739L140.358 148.982L110.358 160.126Z" fill="#ECF1F1"/>
<ellipse cx="173.5" cy="133.221" rx="20.5" ry="14.5" fill="#25B99A"/>
<ellipse cx="191" cy="129.221" rx="22" ry="14.5" fill="#25B99A"/>
<ellipse cx="195.5" cy="135.721" rx="21.5" ry="15" fill="#25B99A"/>
<ellipse cx="20.5" cy="133.221" rx="20.5" ry="14.5" fill="#25B99A"/>
<ellipse cx="38" cy="129.221" rx="22" ry="14.5" fill="#25B99A"/>
<ellipse cx="42.5" cy="135.721" rx="21.5" ry="15" fill="#25B99A"/>
</svg>
