<svg width="217" height="162" viewBox="0 0 217 162" fill="none" xmlns="http://www.w3.org/2000/svg">
<rect x="41" y="64.721" width="131" height="85" fill="#ECF1F1"/>
<path d="M175 57.227L175 150.221L111.5 158.721L42.5 150.221L42.5 60.721" stroke="black" stroke-width="5" stroke-linecap="round"/>
<path d="M111 13.721L173.354 65.471H48.6462L111 13.721Z" fill="#ECF1F1"/>
<path d="M110.091 139.994C104.091 139.994 98.7424 138.963 94.0455 136.903C89.3788 134.842 85.6667 131.979 82.9091 128.312C80.1818 124.615 78.697 120.327 78.4545 115.448H89.9091C90.1515 118.448 91.1818 121.039 93 123.221C94.8182 125.372 97.197 127.039 100.136 128.221C103.076 129.403 106.333 129.994 109.909 129.994C113.909 129.994 117.455 129.297 120.545 127.903C123.636 126.509 126.061 124.569 127.818 122.085C129.576 119.6 130.455 116.721 130.455 113.448C130.455 110.024 129.606 107.009 127.909 104.403C126.212 101.766 123.727 99.7058 120.455 98.221C117.182 96.7361 113.182 95.9937 108.455 95.9937H101V85.9937H108.455C112.152 85.9937 115.394 85.327 118.182 83.9937C121 82.6604 123.197 80.7816 124.773 78.3573C126.379 75.9331 127.182 73.0846 127.182 69.8119C127.182 66.6604 126.485 63.9179 125.091 61.5846C123.697 59.2513 121.727 57.4331 119.182 56.1301C116.667 54.827 113.697 54.1755 110.273 54.1755C107.061 54.1755 104.03 54.7664 101.182 55.9482C98.3636 57.0998 96.0606 58.7816 94.2727 60.9937C92.4848 63.1755 91.5152 65.8119 91.3636 68.9028H80.4545C80.6364 64.024 82.1061 59.7513 84.8636 56.0846C87.6212 52.3876 91.2273 49.5089 95.6818 47.4482C100.167 45.3876 105.091 44.3573 110.455 44.3573C116.212 44.3573 121.152 45.524 125.273 47.8573C129.394 50.1604 132.561 53.2058 134.773 56.9937C136.985 60.7816 138.091 64.8725 138.091 69.2664C138.091 74.5089 136.712 78.9786 133.955 82.6755C131.227 86.3725 127.515 88.9331 122.818 90.3573V91.0846C128.697 92.0543 133.288 94.5543 136.591 98.5846C139.894 102.585 141.545 107.539 141.545 113.448C141.545 118.509 140.167 123.054 137.409 127.085C134.682 131.085 130.955 134.236 126.227 136.539C121.5 138.842 116.121 139.994 110.091 139.994Z" fill="#25B99A"/>
<path d="M26 76.221L42.5 62.721L108.5 7.72095L195.5 76.221" stroke="#556080" stroke-width="12" stroke-linecap="round"/>
<path d="M110.358 160.126L80.8488 147.739L140.358 148.982L110.358 160.126Z" fill="#ECF1F1"/>
<ellipse cx="173.5" cy="133.221" rx="20.5" ry="14.5" fill="#25B99A"/>
<ellipse cx="191" cy="129.221" rx="22" ry="14.5" fill="#25B99A"/>
<ellipse cx="195.5" cy="135.721" rx="21.5" ry="15" fill="#25B99A"/>
<ellipse cx="20.5" cy="133.221" rx="20.5" ry="14.5" fill="#25B99A"/>
<ellipse cx="38" cy="129.221" rx="22" ry="14.5" fill="#25B99A"/>
<ellipse cx="42.5" cy="135.721" rx="21.5" ry="15" fill="#25B99A"/>
</svg>
