<svg width="217" height="162" viewBox="0 0 217 162" fill="none" xmlns="http://www.w3.org/2000/svg">
<rect x="41" y="64.721" width="131" height="85" fill="#ECF1F1"/>
<path d="M175 57.227L175 150.221L111.5 158.721L42.5 150.221L42.5 60.721" stroke="black" stroke-width="5" stroke-linecap="round"/>
<path d="M111 13.721L173.354 65.471H48.6462L111 13.721Z" fill="#ECF1F1"/>
<path d="M70.4545 124.63V115.357L111.364 50.6301H118.091V64.9937H113.545L82.6364 113.903V114.63H137.727V124.63H70.4545ZM114.273 143.721V121.812V117.494V50.6301H125V143.721H114.273Z" fill="#25B99A"/>
<path d="M26 76.221L42.5 62.721L108.5 7.72095L195.5 76.221" stroke="#556080" stroke-width="12" stroke-linecap="round"/>
<path d="M110.358 160.126L80.8488 147.739L140.358 148.982L110.358 160.126Z" fill="#ECF1F1"/>
<ellipse cx="173.5" cy="133.221" rx="20.5" ry="14.5" fill="#25B99A"/>
<ellipse cx="191" cy="129.221" rx="22" ry="14.5" fill="#25B99A"/>
<ellipse cx="195.5" cy="135.721" rx="21.5" ry="15" fill="#25B99A"/>
<ellipse cx="20.5" cy="133.221" rx="20.5" ry="14.5" fill="#25B99A"/>
<ellipse cx="38" cy="129.221" rx="22" ry="14.5" fill="#25B99A"/>
<ellipse cx="42.5" cy="135.721" rx="21.5" ry="15" fill="#25B99A"/>
</svg>
