<svg width="217" height="162" viewBox="0 0 217 162" fill="none" xmlns="http://www.w3.org/2000/svg">
<rect x="41" y="64.721" width="131" height="85" fill="#ECF1F1"/>
<path d="M175 57.227L175 150.221L111.5 158.721L42.5 150.221L42.5 60.721" stroke="black" stroke-width="5" stroke-linecap="round"/>
<path d="M111 13.721L173.354 65.471H48.6462L111 13.721Z" fill="#ECF1F1"/>
<path d="M110.727 144.994C105.394 144.994 100.591 143.933 96.3182 141.812C92.0455 139.691 88.6212 136.782 86.0455 133.085C83.4697 129.388 82.0606 125.176 81.8182 120.448H92.7273C93.1515 124.66 95.0606 128.145 98.4545 130.903C101.879 133.63 105.97 134.994 110.727 134.994C114.545 134.994 117.939 134.1 120.909 132.312C123.909 130.524 126.258 128.069 127.955 124.948C129.682 121.797 130.545 118.236 130.545 114.266C130.545 110.206 129.652 106.585 127.864 103.403C126.106 100.191 123.682 97.6604 120.591 95.8119C117.5 93.9634 113.97 93.024 110 92.9937C107.152 92.9634 104.227 93.4028 101.227 94.3119C98.2273 95.1907 95.7576 96.327 93.8182 97.721L83.2727 96.4482L88.9091 50.6301H137.273V60.6301H98.3636L95.0909 88.0846H95.6364C97.5455 86.5695 99.9394 85.3119 102.818 84.3119C105.697 83.3119 108.697 82.8119 111.818 82.8119C117.515 82.8119 122.591 84.1755 127.045 86.9028C131.53 89.5998 135.045 93.2967 137.591 97.9937C140.167 102.691 141.455 108.054 141.455 114.085C141.455 120.024 140.121 125.327 137.455 129.994C134.818 134.63 131.182 138.297 126.545 140.994C121.909 143.66 116.636 144.994 110.727 144.994Z" fill="#25B99A"/>
<path d="M26 76.221L42.5 62.721L108.5 7.72095L195.5 76.221" stroke="#556080" stroke-width="12" stroke-linecap="round"/>
<path d="M110.358 160.126L80.8488 147.739L140.358 148.982L110.358 160.126Z" fill="#ECF1F1"/>
<ellipse cx="173.5" cy="133.221" rx="20.5" ry="14.5" fill="#25B99A"/>
<ellipse cx="191" cy="129.221" rx="22" ry="14.5" fill="#25B99A"/>
<ellipse cx="195.5" cy="135.721" rx="21.5" ry="15" fill="#25B99A"/>
<ellipse cx="20.5" cy="133.221" rx="20.5" ry="14.5" fill="#25B99A"/>
<ellipse cx="38" cy="129.221" rx="22" ry="14.5" fill="#25B99A"/>
<ellipse cx="42.5" cy="135.721" rx="21.5" ry="15" fill="#25B99A"/>
</svg>
