<svg width="217" height="162" viewBox="0 0 217 162" fill="none" xmlns="http://www.w3.org/2000/svg">
<rect x="41" y="64.721" width="131" height="85" fill="#ECF1F1"/>
<path d="M175 57.227L175 150.221L111.5 158.721L42.5 150.221L42.5 60.721" stroke="black" stroke-width="5" stroke-linecap="round"/>
<path d="M111 13.721L173.354 65.471H48.6462L111 13.721Z" fill="#ECF1F1"/>
<path d="M112.545 144.994C108.727 144.933 104.909 144.206 101.091 142.812C97.2727 141.418 93.7879 139.069 90.6364 135.766C87.4848 132.433 84.9545 127.933 83.0455 122.266C81.1364 116.569 80.1818 109.418 80.1818 100.812C80.1818 92.5695 80.9545 85.2664 82.5 78.9028C84.0455 72.5089 86.2879 67.1301 89.2273 62.7664C92.1667 58.3725 95.7121 55.0392 99.8636 52.7664C104.045 50.4937 108.758 49.3573 114 49.3573C119.212 49.3573 123.848 50.4028 127.909 52.4937C132 54.5543 135.333 57.4331 137.909 61.1301C140.485 64.827 142.152 69.0846 142.909 73.9028H131.818C130.788 69.721 128.788 66.2513 125.818 63.4937C122.848 60.7361 118.909 59.3573 114 59.3573C106.788 59.3573 101.106 62.4937 96.9545 68.7664C92.8333 75.0392 90.7576 83.8422 90.7273 95.1755H91.4545C93.1515 92.5998 95.1667 90.4028 97.5 88.5846C99.8636 86.7361 102.47 85.3119 105.318 84.3119C108.167 83.3119 111.182 82.8119 114.364 82.8119C119.697 82.8119 124.576 84.1452 129 86.8119C133.424 89.4482 136.97 93.0998 139.636 97.7664C142.303 102.403 143.636 107.721 143.636 113.721C143.636 119.479 142.348 124.751 139.773 129.539C137.197 134.297 133.576 138.085 128.909 140.903C124.273 143.691 118.818 145.054 112.545 144.994ZM112.545 134.994C116.364 134.994 119.788 134.039 122.818 132.13C125.879 130.221 128.288 127.66 130.045 124.448C131.833 121.236 132.727 117.66 132.727 113.721C132.727 109.872 131.864 106.372 130.136 103.221C128.439 100.039 126.091 97.5089 123.091 95.6301C120.121 93.7513 116.727 92.8119 112.909 92.8119C110.03 92.8119 107.348 93.3876 104.864 94.5392C102.379 95.6604 100.197 97.2058 98.3182 99.1755C96.4697 101.145 95.0152 103.403 93.9545 105.948C92.8939 108.463 92.3636 111.115 92.3636 113.903C92.3636 117.6 93.2273 121.054 94.9545 124.266C96.7121 127.479 99.1061 130.069 102.136 132.039C105.197 134.009 108.667 134.994 112.545 134.994Z" fill="#25B99A"/>
<path d="M26 76.221L42.5 62.721L108.5 7.72095L195.5 76.221" stroke="#556080" stroke-width="12" stroke-linecap="round"/>
<path d="M110.358 160.126L80.8488 147.739L140.358 148.982L110.358 160.126Z" fill="#ECF1F1"/>
<ellipse cx="173.5" cy="133.221" rx="20.5" ry="14.5" fill="#25B99A"/>
<ellipse cx="191" cy="129.221" rx="22" ry="14.5" fill="#25B99A"/>
<ellipse cx="195.5" cy="135.721" rx="21.5" ry="15" fill="#25B99A"/>
<ellipse cx="20.5" cy="133.221" rx="20.5" ry="14.5" fill="#25B99A"/>
<ellipse cx="38" cy="129.221" rx="22" ry="14.5" fill="#25B99A"/>
<ellipse cx="42.5" cy="135.721" rx="21.5" ry="15" fill="#25B99A"/>
</svg>
