<svg width="217" height="162" viewBox="0 0 217 162" fill="none" xmlns="http://www.w3.org/2000/svg">
<rect x="41" y="64.721" width="131" height="85" fill="#ECF1F1"/>
<path d="M175 57.227L175 150.221L111.5 158.721L42.5 150.221L42.5 60.721" stroke="black" stroke-width="5" stroke-linecap="round"/>
<path d="M111 13.721L173.354 65.471H48.6462L111 13.721Z" fill="#ECF1F1"/>
<path d="M108.455 144.994C102.212 144.994 96.697 143.888 91.9091 141.676C87.1515 139.433 83.4394 136.357 80.7727 132.448C78.1061 128.509 76.7879 124.024 76.8182 118.994C76.7879 115.054 77.5606 111.418 79.1364 108.085C80.7121 104.721 82.8636 101.918 85.5909 99.6755C88.3485 97.4028 91.4242 95.9634 94.8182 95.3573V94.8119C90.3636 93.6604 86.8182 91.1604 84.1818 87.3119C81.5455 83.4331 80.2424 79.024 80.2727 74.0846C80.2424 69.3573 81.4394 65.1301 83.8636 61.4028C86.2879 57.6755 89.6212 54.7361 93.8636 52.5846C98.1364 50.4331 103 49.3573 108.455 49.3573C113.848 49.3573 118.667 50.4331 122.909 52.5846C127.152 54.7361 130.485 57.6755 132.909 61.4028C135.364 65.1301 136.606 69.3573 136.636 74.0846C136.606 79.024 135.258 83.4331 132.591 87.3119C129.955 91.1604 126.455 93.6604 122.091 94.8119V95.3573C125.455 95.9634 128.485 97.4028 131.182 99.6755C133.879 101.918 136.03 104.721 137.636 108.085C139.242 111.418 140.061 115.054 140.091 118.994C140.061 124.024 138.697 128.509 136 132.448C133.333 136.357 129.621 139.433 124.864 141.676C120.136 143.888 114.667 144.994 108.455 144.994ZM108.455 134.994C112.667 134.994 116.303 134.312 119.364 132.948C122.424 131.585 124.788 129.66 126.455 127.176C128.121 124.691 128.97 121.782 129 118.448C128.97 114.933 128.061 111.827 126.273 109.13C124.485 106.433 122.045 104.312 118.955 102.766C115.894 101.221 112.394 100.448 108.455 100.448C104.485 100.448 100.939 101.221 97.8182 102.766C94.7273 104.312 92.2879 106.433 90.5 109.13C88.7424 111.827 87.8788 114.933 87.9091 118.448C87.8788 121.782 88.6818 124.691 90.3182 127.176C91.9848 129.66 94.3636 131.585 97.4545 132.948C100.545 134.312 104.212 134.994 108.455 134.994ZM108.455 90.8119C111.788 90.8119 114.742 90.1452 117.318 88.8119C119.924 87.4786 121.97 85.6149 123.455 83.221C124.939 80.827 125.697 78.024 125.727 74.8119C125.697 71.6604 124.955 68.9179 123.5 66.5846C122.045 64.221 120.03 62.4028 117.455 61.1301C114.879 59.827 111.879 59.1755 108.455 59.1755C104.97 59.1755 101.924 59.827 99.3182 61.1301C96.7121 62.4028 94.697 64.221 93.2727 66.5846C91.8485 68.9179 91.1515 71.6604 91.1818 74.8119C91.1515 78.024 91.8636 80.827 93.3182 83.221C94.803 85.6149 96.8485 87.4786 99.4545 88.8119C102.061 90.1452 105.061 90.8119 108.455 90.8119Z" fill="#25B99A"/>
<path d="M26 76.221L42.5 62.721L108.5 7.72095L195.5 76.221" stroke="#556080" stroke-width="12" stroke-linecap="round"/>
<path d="M110.358 160.126L80.8488 147.739L140.358 148.982L110.358 160.126Z" fill="#ECF1F1"/>
<ellipse cx="173.5" cy="133.221" rx="20.5" ry="14.5" fill="#25B99A"/>
<ellipse cx="191" cy="129.221" rx="22" ry="14.5" fill="#25B99A"/>
<ellipse cx="195.5" cy="135.721" rx="21.5" ry="15" fill="#25B99A"/>
<ellipse cx="20.5" cy="133.221" rx="20.5" ry="14.5" fill="#25B99A"/>
<ellipse cx="38" cy="129.221" rx="22" ry="14.5" fill="#25B99A"/>
<ellipse cx="42.5" cy="135.721" rx="21.5" ry="15" fill="#25B99A"/>
</svg>
