<svg width="217" height="162" viewBox="0 0 217 162" fill="none" xmlns="http://www.w3.org/2000/svg">
<rect x="41" y="64.721" width="131" height="85" fill="#ECF1F1"/>
<path d="M175 57.227L175 150.221L111.5 158.721L42.5 150.221L42.5 60.721" stroke="black" stroke-width="5" stroke-linecap="round"/>
<path d="M111 13.721L173.354 65.471H48.6462L111 13.721Z" fill="#ECF1F1"/>
<path d="M108.273 49.3573C112.091 49.3876 115.909 50.1149 119.727 51.5392C123.545 52.9634 127.03 55.327 130.182 58.6301C133.333 61.9028 135.864 66.3725 137.773 72.0392C139.682 77.7058 140.636 84.8119 140.636 93.3573C140.636 101.63 139.848 108.979 138.273 115.403C136.727 121.797 134.485 127.191 131.545 131.585C128.636 135.979 125.091 139.312 120.909 141.585C116.758 143.857 112.061 144.994 106.818 144.994C101.606 144.994 96.9545 143.963 92.8636 141.903C88.803 139.812 85.4697 136.918 82.8636 133.221C80.2879 129.494 78.6364 125.176 77.9091 120.266H89C90 124.539 91.9848 128.069 94.9545 130.857C97.9545 133.615 101.909 134.994 106.818 134.994C114 134.994 119.667 131.857 123.818 125.585C128 119.312 130.091 110.448 130.091 98.9937H129.364C127.667 101.539 125.652 103.736 123.318 105.585C120.985 107.433 118.394 108.857 115.545 109.857C112.697 110.857 109.667 111.357 106.455 111.357C101.121 111.357 96.2273 110.039 91.7727 107.403C87.3485 104.736 83.803 101.085 81.1364 96.4482C78.5 91.7816 77.1818 86.4482 77.1818 80.4482C77.1818 74.7513 78.4545 69.5392 81 64.8119C83.5758 60.0543 87.1818 56.2664 91.8182 53.4482C96.4848 50.6301 101.97 49.2664 108.273 49.3573ZM108.273 59.3573C104.455 59.3573 101.015 60.3119 97.9545 62.221C94.9242 64.0998 92.5152 66.6452 90.7273 69.8573C88.9697 73.0392 88.0909 76.5695 88.0909 80.4482C88.0909 84.327 88.9394 87.8573 90.6364 91.0392C92.3636 94.1907 94.7121 96.7058 97.6818 98.5846C100.682 100.433 104.091 101.357 107.909 101.357C110.788 101.357 113.47 100.797 115.955 99.6755C118.439 98.524 120.606 96.9634 122.455 94.9937C124.333 92.9937 125.803 90.7361 126.864 88.221C127.924 85.6755 128.455 83.024 128.455 80.2664C128.455 76.6301 127.576 73.221 125.818 70.0392C124.091 66.8573 121.697 64.2816 118.636 62.3119C115.606 60.3422 112.152 59.3573 108.273 59.3573Z" fill="#25B99A"/>
<path d="M26 76.221L42.5 62.721L108.5 7.72095L195.5 76.221" stroke="#556080" stroke-width="12" stroke-linecap="round"/>
<path d="M110.358 160.126L80.8488 147.739L140.358 148.982L110.358 160.126Z" fill="#ECF1F1"/>
<ellipse cx="173.5" cy="133.221" rx="20.5" ry="14.5" fill="#25B99A"/>
<ellipse cx="191" cy="129.221" rx="22" ry="14.5" fill="#25B99A"/>
<ellipse cx="195.5" cy="135.721" rx="21.5" ry="15" fill="#25B99A"/>
<ellipse cx="20.5" cy="133.221" rx="20.5" ry="14.5" fill="#25B99A"/>
<ellipse cx="38" cy="129.221" rx="22" ry="14.5" fill="#25B99A"/>
<ellipse cx="42.5" cy="135.721" rx="21.5" ry="15" fill="#25B99A"/>
</svg>
